<?xml version="1.0" encoding="utf-8"?>
<!-- Svg Vector Icons : http://www.onlinewebfonts.com/icon -->
<!DOCTYPE svg PUBLIC "-//W3C//DTD SVG 1.1//EN" "http://www.w3.org/Graphics/SVG/1.1/DTD/svg11.dtd">
<svg version="1.1" xmlns="http://www.w3.org/2000/svg" xmlns:xlink="http://www.w3.org/1999/xlink" x="0px" y="0px" viewBox="0 0 1000 1000" enable-background="new 0 0 1000 1000" xml:space="preserve">
<metadata> Svg Vector Icons : http://www.onlinewebfonts.com/icon </metadata>
<g><path d="M499.9,10C229.4,10,10,229.4,10,500s219.4,490,489.9,490C770.6,990,990,770.6,990,500S770.6,10,499.9,10z M499.9,955C248.6,955,45,751.3,45,500c0-251.3,203.7-455,455-455C751.3,45,955,248.7,955,500C955,751.3,751.3,955,499.9,955z"/><path d="M283,438.2h-46.7v143h-21v-143h-46.5v-18.6H283V438.2z"/><path d="M287,502.3c0-26.1,7.1-46.9,21.2-62.2c14.1-15.5,33.2-23.2,57.4-23.2c22.5,0,40.5,7.5,54.3,22.6c13.7,15.1,20.5,34.8,20.5,59c0,26.2-7,47.1-21,62.4c-14.1,15.4-32.9,23.1-56.4,23.1c-23,0-41.4-7.6-55.2-22.6C293.9,546.2,287,526.5,287,502.3z M308.9,500.6c0,19.6,5,35.2,15,47c10,11.8,23,17.7,39.1,17.7c17.3,0,30.8-5.7,40.6-17c9.9-11.3,14.7-27.1,14.7-47.5c0-20.8-4.8-36.9-14.4-48.3c-9.6-11.3-22.9-17-39.6-17c-16.5,0-29.8,6-40.1,18C314,465.5,308.9,481.2,308.9,500.6z"/><path d="M492.5,520.8v60.4h-20.9V419.6h45.9c17.4,0,31,4.2,40.6,12.6c9.7,8.4,14.5,20.4,14.5,36.1c0,15.9-5.6,28.7-16.9,38.6c-11.3,9.8-25.3,14.5-42.2,13.9H492.5z M492.5,438v64.5h19.3c12.7,0,22.4-2.8,29-8.6c6.6-5.7,9.9-14,9.9-24.7c0-20.8-12.3-31.2-36.9-31.2H492.5z"/><path d="M693.8,581.2h-92.6v-17.6h36.2V440.8l-37.2,10.8v-18.8l57.5-16.7v147.4h36.1V581.2z"/><path d="M716.3,503.6c0-28.5,4.7-50.1,14.2-64.8c9.4-14.6,23.2-21.9,41.1-21.9c34.3,0,51.4,27.6,51.4,82.8c0,27.3-4.8,48.1-14.4,62.5s-23.2,21.7-40.6,21.7c-16.4,0-29.1-6.9-38.1-20.6C720.8,549.6,716.3,529.8,716.3,503.6z M737.2,502.6c0,42.9,10.9,64.4,32.6,64.4c21.4,0,32.1-21.8,32.1-65.4c0-45.1-10.5-67.7-31.5-67.7C748.3,433.8,737.2,456.8,737.2,502.6z"/><path d="M823.3,672.6h-11.2H187.8h-11.2h-11.1v-18.2h11.1h11.2h624.4h11.2h11.2v18.2H823.3z M766.3,609.1h0.4l0,0.1L766.3,609.1z M644.9,609.1h0.4v0.1L644.9,609.1z M812.2,345.5H187.8h-11.2h-11.1v-18.2h11.1h11.2h624.4h11.2h11.2v18.2h-11.2H812.2z"/></g>
</svg>